<?xml version="1.0" encoding="utf-8"?>
<!-- Generator: Adobe Illustrator 24.0.0, SVG Export Plug-In . SVG Version: 6.00 Build 0)  -->
<svg version="1.1" class="facebook" xmlns="http://www.w3.org/2000/svg" xmlns:xlink="http://www.w3.org/1999/xlink" x="0px" y="0px"
	 viewBox="0 0 65 65" style="enable-background:new 0 0 65 65;" xml:space="preserve">
<path class="st0" d="M23.7,14c0,1.6,0,8.9,0,8.9h-6.4v10.9h6.4v29.9h13.2V33.9h8.9c0,0,0.8-5.2,1.2-11
	c-1.2,0-10.1,0-10.1,0s0-6.3,0-7.5c0-1.1,1.4-2.6,2.9-2.6c1.4,0,4.4,0,7.2,0c0-1.5,0-6.6,0-11.4c-3.7,0-7.9,0-9.8,0
	C23.4,1.5,23.7,12.4,23.7,14z"/>
</svg>
