<?xml version="1.0" encoding="utf-8"?>
<!-- Generator: Adobe Illustrator 24.0.0, SVG Export Plug-In . SVG Version: 6.00 Build 0)  -->
<svg version="1.1" class="icon" xmlns="http://www.w3.org/2000/svg" xmlns:xlink="http://www.w3.org/1999/xlink" x="0px" y="0px"
	 viewBox="0 0 67 63" style="enable-background:new 0 0 67 63;" xml:space="preserve">
<g>
	<polygon points="55.9,10.8 55.9,0.6 51.6,0.6 51.6,10.8 41.4,10.8 41.4,15.1 51.6,15.1 51.6,25.4 55.9,25.4 55.9,15.1 
		66.1,15.1 66.1,10.8 	"/>
	<path d="M37.6,40.6c-0.6-0.9-1.4-1.7-2.2-2.4c-0.8-0.8-1.7-1.5-2.6-2.3l-2.9-2.3c-0.4-0.4-0.9-0.8-1.4-1.3
		c-0.5-0.5-0.7-1.2-0.7-2.2c0-0.9,0.2-1.7,0.7-2.3c0.5-0.6,1-1.2,1.5-1.7c0.9-0.7,1.7-1.3,2.5-2.1c0.8-0.7,1.5-1.5,2.2-2.4
		c0.6-0.9,1.2-1.9,1.5-3.1c0.4-1.1,0.6-2.5,0.6-4c0-1.5-0.2-2.9-0.7-4.1c-0.4-1.2-1-2.2-1.5-3.1c-0.6-0.9-1.2-1.7-1.9-2.3
		c-0.7-0.6-1.2-1.1-1.7-1.5h5l5.2-2.9H24.7c-2.2,0-4.6,0.3-7.2,0.8c-2.6,0.5-5,1.8-7.4,3.7c-1.7,1.5-3,3.2-3.9,5.2
		c-0.9,1.9-1.3,3.8-1.3,5.7c0,1.6,0.3,3.1,0.9,4.7c0.6,1.5,1.5,2.9,2.6,4.1c1.1,1.2,2.5,2.2,4.2,2.9c1.7,0.7,3.6,1.1,5.8,1.1
		c0.4,0,0.9,0,1.3,0c0.4,0,0.9-0.1,1.3-0.1c-0.2,0.5-0.4,1-0.6,1.4c-0.2,0.5-0.2,1-0.2,1.8c0,1.2,0.3,2.3,0.8,3.1
		c0.5,0.8,1.1,1.6,1.7,2.4c-0.9,0.1-2,0.1-3.3,0.2c-1.2,0.1-2.6,0.3-4,0.6c-1.4,0.3-2.8,0.6-4.3,1.1c-1.4,0.5-2.8,1.1-4,1.8
		c-2.4,1.4-4,3.1-4.9,4.9c-0.9,1.9-1.3,3.5-1.3,5c0,1.5,0.4,3,1.1,4.4c0.7,1.4,1.8,2.6,3.3,3.7c1.5,1.1,3.3,2,5.5,2.6
		c2.2,0.7,4.8,1,7.7,1c3.5,0,6.5-0.4,9.2-1.3c2.7-0.9,4.9-2.1,6.7-3.5c1.8-1.4,3.1-3.1,4.1-4.9c0.9-1.8,1.4-3.7,1.4-5.6
		c0-1.4-0.2-2.7-0.6-3.7C38.8,42.4,38.3,41.4,37.6,40.6z M22.2,26.5c-1.7,0-3.2-0.5-4.5-1.5c-1.3-1-2.3-2.3-3.2-3.7
		c-0.8-1.5-1.5-3-1.9-4.7C12.2,14.9,12,13.3,12,12c0-1.1,0.1-2.1,0.4-3.2c0.2-1,0.7-2,1.4-2.9c0.7-0.8,1.5-1.5,2.5-2
		c1-0.5,2.1-0.7,3.2-0.7c1.7,0,3.2,0.5,4.4,1.5c1.3,1,2.3,2.3,3.2,3.8c0.9,1.5,1.5,3.2,2,4.9c0.4,1.7,0.6,3.3,0.6,4.8
		c0,0.8-0.1,1.7-0.3,2.9c-0.2,1.1-0.8,2.2-1.7,3.1c-0.7,0.7-1.5,1.2-2.5,1.6C24.3,26.3,23.2,26.5,22.2,26.5z M31.2,56.7
		c-2,1.6-5,2.5-8.9,2.5c-4.4,0-7.9-0.9-10.5-2.8C9.3,54.6,8,52.2,8,49.3c0-1.5,0.3-2.7,0.9-3.7c0.6-1,1.2-1.8,2-2.4
		c0.8-0.7,1.5-1.2,2.3-1.5c0.8-0.4,1.4-0.6,1.8-0.8c0.9-0.3,1.8-0.5,2.7-0.7c0.9-0.2,1.8-0.3,2.6-0.4c0.8-0.1,1.5-0.1,2.1-0.2
		c0.6,0,1,0,1.1,0c0.4,0,0.8,0,1,0c0.2,0,0.5,0,0.9,0.1c1.5,1.1,2.9,2.1,4,2.9c1.1,0.9,2.1,1.7,2.8,2.5c0.7,0.8,1.2,1.6,1.6,2.5
		c0.4,0.8,0.5,1.8,0.5,2.8C34.3,53,33.2,55.1,31.2,56.7z"/>
</g>
</svg>
