<?xml version="1.0" encoding="utf-8"?>
<!-- Generator: Adobe Illustrator 24.0.0, SVG Export Plug-In . SVG Version: 6.00 Build 0)  -->
<svg version="1.1" class="icon" xmlns="http://www.w3.org/2000/svg" xmlns:xlink="http://www.w3.org/1999/xlink" x="0px" y="0px"
	 viewBox="0 0 62.8 61.4" style="enable-background:new 0 0 62.8 61.4;" xml:space="preserve">
<path d="M51,1H12C5.9,1,0.9,5.9,0.9,11.8v38c0,5.9,5,10.8,11.1,10.8h39c6.1,0,11.1-4.9,11.1-10.8v-38C62.1,5.9,57.1,1,51,1z
	 M43.8,9.4C43.8,8,44.9,7,46.3,7c2.4,0,4.9,0,7.3,0c1.3,0,2.3,0.8,2.5,2c0,0.1,0,0.2,0,0.4c0,2.3,0,4.7,0,7c0,1.2-0.8,2.1-2,2.3
	c-0.2,0-0.3,0-0.5,0c-1.2,0-2.4,0-3.6,0s-2.4,0-3.6,0c-1.1,0-2.3-0.7-2.5-2c0-0.1,0-0.2,0-0.3C43.8,14,43.8,11.7,43.8,9.4z
	 M31.5,18.7c6.8,0,12.3,5.2,12.3,11.7s-5.5,11.7-12.3,11.7s-12.3-5.2-12.3-11.7C19.2,24,24.6,18.7,31.5,18.7z M56.1,26
	c0,6.9,0,13.8,0,20.8c0,1.5,0,3.1,0,4.6c0,1.1-0.8,2.1-2,2.3c-0.2,0-0.5,0.1-0.7,0.1c-7.1,0-14.1,0-21.2,0c-7.6,0-15.1,0-22.7,0
	c-0.3,0-0.6,0-1-0.1c-1-0.3-1.6-1.1-1.7-2c0-0.1,0-0.3,0-0.4c0-8.4,0-16.8,0-25.2c0-0.1,0-0.2,0-0.3c1.9,0,3.7,0,5.5,0
	c-1.3,4.8-0.7,9.5,1.9,13.8c1.8,3.1,4.4,5.5,7.7,7.2c3.2,1.7,6.7,2.5,10.4,2.3c6.2-0.3,11.1-2.9,14.9-7.6c3.6-4.8,4.6-10,3.2-15.7
	c1.8,0,3.7,0,5.5,0C56.1,25.8,56.1,25.9,56.1,26z"/>
</svg>
