<?xml version="1.0" encoding="utf-8"?>
<!-- Generator: Adobe Illustrator 24.0.0, SVG Export Plug-In . SVG Version: 6.00 Build 0)  -->
<svg version="1.1" class="thumbs-down" xmlns="http://www.w3.org/2000/svg" xmlns:xlink="http://www.w3.org/1999/xlink" x="0px" y="0px"
	 viewBox="0 0 1565.1 1639.8" style="enable-background:new 0 0 1565.1 1639.8;" xml:space="preserve">
<path class="st0" d="M641.4,1579.1c-9.3,0-22.9,2.3-31-1.3c-4-1.8-10.1-1.6-14.5-2.7c-5.8-1.5-11.7-2.9-17.4-4.8
	c-19.8-6.5-38.5-17.6-54.3-31.1c-15.5-13.2-28.8-28.9-38.6-46.8c-10.3-18.9-15.7-39.2-20.9-59.9c-5.4-21.3-6.4-44.5-6.6-66.4
	c-0.2-22.1,1.4-45.1,6.3-66.6c4.7-20.6,9.6-40.6,17.3-60.4c8.1-20.8,19.3-40.6,29.2-60.6c9.6-19.3,18.8-38.8,28.2-58.2
	c9-18.8,18-38.8,24.1-58.8c6.1-19.7,11.5-40.3,10.5-61.2c-0.3-6.6-1-21-7.1-25.3c-3-2.2-8.8-0.9-12.2-0.9
	c-6.4,0.1-12.8,0.4-19.1,0.7c-46.2,2-92.5,1.8-138.7,1.7c-45.6-0.1-91.2-0.3-136.7-3.2c-22.5-1.4-45.5-2.4-67.8-5.9
	c-20.1-3.2-39.5-8.6-55.7-21.6c-15.7-12.6-29.3-29.3-40.9-45.5c-11.9-16.5-23.2-34.9-30.2-54.2c-3.2-8.9-6.9-18.6-7.9-28.1
	c-1.1-10.6,1-19.3,6.2-28.5c10.1-17.8,24.4-32.9,35.5-50.1c5.6-8.7,9.7-17.3,8.1-27.9c-1.6-10.6-7-20.6-12.2-29.9
	c-9.8-17.5-21.5-34.1-30.5-52.1c-4.1-8.3-8-17.6-7.2-27c0.9-10,6.9-19,12.7-26.8c12.4-16.5,27.4-30.9,39.7-47.5
	c5.8-7.7,11.4-16.2,11.8-26.1c0.3-10.6-2.4-20.9-6-30.8c-7.4-20.3-17.4-40.3-23.2-61.2c-6.1-21.8,0.5-39.7,13.6-57.4
	c12.6-17,28.9-31,43.8-45.8c14.4-14.3,27.2-28.7,27-50c-0.1-11-0.2-21.9-0.3-32.9c-0.1-11.1-1.4-22.9,1.7-33.7
	c5.5-19,21.4-36.1,34.7-50.1c14.5-15.2,30.6-28.8,47.8-40.8c17.2-12.1,34.8-20.5,55.2-25.6c20.9-5.3,42.9-7.8,64.4-9.7
	c90.6-7.8,181.7-2.4,272.3,0.8c44.7,1.6,89.7,4.5,134.2,8.8c10.3,1,20.5,1.4,30.8,2.2c10.1,0.7,20.5,3.4,30.5,5.2
	c21.1,3.9,42.1,7.7,63.1,11.8c42.8,8.3,85.8,15.9,128.6,23.9c21.6,4,43.3,8,64.9,11.9c10.5,1.9,21,3.9,31.5,6
	c3.2,0.6,6.6,1.1,7.2,4.9c0.9,5.9,0.1,12.5,0.1,18.4c-0.1,185.8-0.1,371.5-0.1,557.3c0,11.1,0,22.3,0,33.4c0,2.7,0.9,7.3-0.7,9.7
	c-1.8,2.8-9.8,1.4-12.5,1.4c-9.8,0.1-19.9-0.8-29.6,1.2c-9.9,2-19.1,6.7-27.5,12.1c-34.1,21.9-59.7,57.8-81,91.5
	c-23.3,36.8-43.9,75.4-62.1,114.9c-18.3,39.8-34.4,80.5-51.9,120.7c-17,39.1-48.3,65.3-80.9,91.3c-16.5,13.1-32.7,26.5-46.3,42.7
	c-13.8,16.3-25,34.8-33.8,54.3c-18.1,40.2-30.1,84.3-36.2,128c-6.2,44.6-12.6,89.2-15,134.2c-0.4,7.5-1.6,14.6-7.4,19.9
	c-2.4,2.2-5.4,3.9-8.5,5.1C648.1,1576.4,642.7,1576.5,641.4,1579.1C631.6,1579.1,642.2,1577.5,641.4,1579.1L641.4,1579.1z
	 M1507.8,741.6l0-602.9c-3-0.6-3.1-7.4-3.9-9.7c-5.9-15.9-20.8-29.6-36.6-35.1c-9.3-3.2-18.8-3.3-28.6-3.3c-11,0-22.1,0-33.1,0
	c-46,0-92,0-138,0c-19.1,0-36.9,6.9-49.6,21.7c-13.4,15.7-14.6,34.7-14.6,54.5c0,46.6,0,93.2,0,139.9c0,93.2,0,186.5,0,279.7
	c0,46.4-1.2,92.9,0.1,139.3c0.5,20,7.4,38.4,23.3,51.1c15.4,12.4,33.6,13.3,52.5,13.4c46.4,0.1,92.8,0.1,139.2,0
	c21-0.1,42.7,2,61.1-10.1c7.4-4.8,13.9-11,18.7-18.5c2.2-3.4,4-7.1,5.4-11C1504.6,748.4,1505.1,742,1507.8,741.6
	C1507.8,540.6,1506.3,741.8,1507.8,741.6L1507.8,741.6z"/>
</svg>
