<?xml version="1.0" encoding="utf-8"?>
<!-- Generator: Adobe Illustrator 24.0.0, SVG Export Plug-In . SVG Version: 6.00 Build 0)  -->
<svg version="1.1" class="icon" xmlns="http://www.w3.org/2000/svg" xmlns:xlink="http://www.w3.org/1999/xlink" x="0px" y="0px"
	 viewBox="0 0 68 65" style="enable-background:new 0 0 68 65;" xml:space="preserve">
<path d="M67.8,11.8c-2.5,1.1-5.1,1.8-7.9,2.2c2.8-1.7,5-4.4,6.1-7.6c-2.7,1.6-5.6,2.7-8.8,3.3C54.7,7,51.1,5.3,47.1,5.3
	c-7.6,0-13.8,6.2-13.8,13.8c0,1.1,0.1,2.1,0.4,3.1C22.2,21.7,12,16.2,5.2,7.8c-1.2,2-1.9,4.4-1.9,6.9c0,4.8,2.4,9,6.1,11.5
	c-2.3-0.1-4.4-0.7-6.3-1.7c0,0.1,0,0.1,0,0.2C3.3,31.4,8,37,14.3,38.2c-1.2,0.3-2.4,0.5-3.6,0.5c-0.9,0-1.8-0.1-2.6-0.3
	c1.8,5.5,6.9,9.5,12.9,9.6C16.3,51.7,10.3,54,3.8,54c-1.1,0-2.2-0.1-3.3-0.2C6.7,57.7,13.9,60,21.7,60c25.4,0,39.2-21,39.2-39.2
	c0-0.6,0-1.2,0-1.8C63.6,17,65.9,14.6,67.8,11.8z"/>
</svg>
